{"title":"A Football Life-Barry Sanders x264 [Manson316]","uid":7947092,"size":525471313,"categoryP":"video","categoryS":"tv_shows","magnet":"?xt=urn:btih:52bfdcc827e38d73c48c03d912f53a5348fd1db7&amp;dn=A+Football+Life-Barry+Sanders+x264+%5BManson316%5D&amp;tr=udp%3A%2F%2Ftracker.openbittorrent.com%3A80&amp;tr=udp%3A%2F%2Fopen.demonii.com%3A1337&amp;tr=udp%3A%2F%2Ftracker.coppersurfer.tk%3A6969&amp;tr=udp%3A%2F%2Fexodus.desync.com%3A6969","seeders":3,"leechers":0,"uploader":"Manson316","files":5,"time":1356165117,"description":"A Football Life - Barry Sanders x264 [Manson316]\n\n\nGeneral\nFormat                           : MPEG-4\nCodec ID                         : mp42\nFile size                        : 499 MiB\nDuration                         : 44mn 34s\n\nVideo\nBit rate mode                    : Variable\nBit rate                         : 1 342 Kbps\nWidth                            : 720 pixels\nHeight                           : 432 pixels\nDisplay aspect ratio             : 1.977\nFrame rate mode                  : Variable\nFrame rate                       : 26.183 fps\nMinimum frame rate               : 17.123 fps\nMaximum frame rate               : 60.000 fps\nStream size                      : 427 MiB (85%)\n\nAudio\nCodec ID                         : ac-3\nDuration                         : 44mn 34s\nBit rate mode                    : Constant\nBit rate                         : 224 Kbps\nChannel(s)                       : 2 channels\nChannel positions                : Front: L R\nSampling rate                    : 48.0 KHz\nBit depth                        : 16 bits\nCompression mode                 : Lossy\nStream size                      : 71.4 MiB (14%)\nLanguage                         : English\n\n\n\nHere's the Barry Sanders Episode...\nEnjoy and Seed","torrent":{"xt":"urn:btih:52bfdcc827e38d73c48c03d912f53a5348fd1db7","amp;dn":"A+Football+Life-Barry+Sanders+x264+%5BManson316%5D","amp;tr":["udp%3A%2F%2Ftracker.openbittorrent.com%3A80","udp%3A%2F%2Fopen.demonii.com%3A1337","udp%3A%2F%2Ftracker.coppersurfer.tk%3A6969","udp%3A%2F%2Fexodus.desync.com%3A6969"],"infoHash":"52bfdcc827e38d73c48c03d912f53a5348fd1db7","infoHashBuffer":{"type":"Buffer","data":[82,191,220,200,39,227,141,115,196,140,3,217,18,245,58,83,72,253,29,183]},"announce":[],"urlList":[]}}